<svg width="24" height="24" viewBox="0 0 24 24" fill="none" xmlns="http://www.w3.org/2000/svg">
<path d="M18 22C18.55 22 19.0207 21.8043 19.412 21.413C19.804 21.021 20 20.55 20 20V10C20 9.45 19.804 8.979 19.412 8.587C19.0207 8.19567 18.55 8 18 8H9V6C9 5.16667 9.29167 4.45833 9.875 3.875C10.4583 3.29167 11.1667 3 12 3C12.6833 3 13.2873 3.204 13.812 3.612C14.3373 4.02067 14.6917 4.53333 14.875 5.15C14.9583 5.4 15.0873 5.604 15.262 5.762C15.4373 5.92067 15.6417 6 15.875 6C16.2083 6 16.475 5.88733 16.675 5.662C16.875 5.43733 16.9417 5.18333 16.875 4.9C16.625 3.78333 16.05 2.854 15.15 2.112C14.25 1.37067 13.2 1 12 1C10.6167 1 9.43733 1.48733 8.462 2.462C7.48733 3.43733 7 4.61667 7 6V8H6C5.45 8 4.979 8.19567 4.587 8.587C4.19567 8.979 4 9.45 4 10V20C4 20.55 4.19567 21.021 4.587 21.413C4.979 21.8043 5.45 22 6 22H18ZM18 20H6V10H18V20Z" fill="#C1DE92"/>
<path d="M15 13.5625C15 14.3594 14.5083 15.1771 13.5389 15.9948C13.0987 16.3658 12.6194 16.6939 12.1083 16.9739C12.0751 16.991 12.0379 17 12 17C11.9621 17 11.9249 16.991 11.8917 16.9739C11.7722 16.9114 9 15.4349 9 13.5625C9 13.2346 9.11006 12.9149 9.3146 12.6489C9.51913 12.3828 9.80777 12.1839 10.1396 12.0802C10.4715 11.9765 10.8297 11.9733 11.1636 12.0711C11.4975 12.1689 11.7901 12.3626 12 12.625C12.2099 12.3626 12.5025 12.1689 12.8364 12.0711C13.1703 11.9733 13.5285 11.9765 13.8604 12.0802C14.1922 12.1839 14.4809 12.3828 14.6854 12.6489C14.8899 12.9149 15 13.2346 15 13.5625Z" fill="#C1DE92"/>
</svg>
