<svg width="47" height="47" viewBox="0 0 47 47" fill="none" xmlns="http://www.w3.org/2000/svg">
<g clip-path="url(#clip0_1067_1541)">
<path d="M17.0631 32.4199C14.5729 30.6229 13.0873 28.2367 12.6062 25.2613C12.1252 22.2859 12.7831 19.5532 14.5801 17.063C16.3771 14.5729 18.7633 13.0872 21.7387 12.6062C24.7141 12.1251 27.4469 12.7831 29.937 14.58C31.2193 15.5054 32.2545 16.6554 33.0428 18.0303C33.8316 19.4044 34.2888 20.8856 34.4143 22.474L35.8224 20.5228C36.0503 20.2069 36.3486 20.0191 36.7172 19.9595C37.0845 19.9001 37.4261 19.9844 37.742 20.2124C38.0579 20.4404 38.2455 20.738 38.3049 21.1053C38.3645 21.4739 38.2803 21.8161 38.0523 22.132L34.0292 27.707C33.8012 28.0229 33.5032 28.2103 33.1352 28.2691C32.7674 28.3293 32.4255 28.2453 32.1096 28.0174L26.5346 23.9942C26.2187 23.7663 26.0314 23.4683 25.9725 23.1002C25.9124 22.7324 25.9963 22.3905 26.2243 22.0746C26.4523 21.7587 26.7505 21.571 27.1191 21.5114C27.4864 21.452 27.828 21.5363 28.1439 21.7643L31.7119 24.339C31.8682 22.8693 31.6454 21.465 31.0436 20.1264C30.4409 18.7871 29.5357 17.6817 28.3278 16.81C26.4695 15.469 24.4205 14.9795 22.181 15.3416C19.9414 15.7037 18.1511 16.8139 16.8101 18.6722C15.4691 20.5306 14.9796 22.5795 15.3417 24.8191C15.7038 27.0586 16.814 28.8489 18.6723 30.1899C19.9545 31.1153 21.3843 31.631 22.9615 31.7371C24.5375 31.8434 26.0039 31.5242 27.3609 30.7796C27.6013 30.6422 27.8787 30.5813 28.1931 30.5967C28.5073 30.611 28.7759 30.6985 28.9989 30.8594C29.4263 31.1679 29.6397 31.548 29.6393 31.9998C29.638 32.4511 29.4197 32.8022 28.9842 33.0532C27.1382 34.1232 25.1359 34.6068 22.9775 34.504C20.8185 34.402 18.847 33.7073 17.0631 32.4199Z" fill="#505050"/>
</g>
<defs>
<clipPath id="clip0_1067_1541">
<rect width="33" height="33" fill="white" transform="translate(19.7754 0.4646) rotate(35.8157)"/>
</clipPath>
</defs>
</svg>
