<svg width="50" height="50" viewBox="0 0 50 50" fill="none" xmlns="http://www.w3.org/2000/svg">
<path d="M30.4142 16.0039L31.4375 13.956C31.5987 13.6335 32.0379 13.5824 32.2688 13.8593L33.3731 15.1837C33.6446 15.5093 33.4131 16.0039 32.9891 16.0039H30.4142ZM17.7167 36.8086H18.2167H32.1952H32.6952V36.3086C32.6952 34.9843 31.6217 33.9108 30.2974 33.9108H24.9999H20.1145C18.7902 33.9108 17.7167 34.9843 17.7167 36.3086V36.8086ZM20.4625 13.1569C20.2965 12.8245 20.5383 12.4336 20.9099 12.4336H22.1463C22.5457 12.4336 22.7839 12.8788 22.5622 13.2111L21.3767 14.988L20.4625 13.1569ZM27.4376 13.2111C27.2159 12.8788 27.4541 12.4336 27.8535 12.4336H29.0899C29.4615 12.4336 29.7033 12.8245 29.5373 13.1569L28.6231 14.988L27.4376 13.2111ZM24.5839 13.8817C24.7818 13.5849 25.218 13.5849 25.4159 13.8817L26.8311 16.0039H23.1687L24.5839 13.8817ZM17.731 13.8596C17.9619 13.5826 18.4012 13.6337 18.5624 13.9563L19.5856 16.0039H17.0114C16.5875 16.0039 16.3559 15.5094 16.6274 15.1838L17.731 13.8596ZM16.1877 18.8359C15.9663 18.5036 16.2045 18.0586 16.6038 18.0586H20.5249L23.8754 27.2539H21.7988L16.1877 18.8359ZM22.9629 18.7293C22.8445 18.4032 23.086 18.0586 23.4329 18.0586H26.5669C26.9138 18.0586 27.1553 18.4032 27.0369 18.7293L24.9999 24.338L22.9629 18.7293ZM28.2011 27.2539H26.1244L29.4749 18.0586H33.397C33.7964 18.0586 34.0346 18.5037 33.813 18.8359L28.2011 27.2539ZM22.2772 29.8086C22.2772 29.5324 22.5011 29.3086 22.7772 29.3086H27.2226C27.4987 29.3086 27.7226 29.5324 27.7226 29.8086V30.5039C27.7226 30.78 27.4987 31.0039 27.2226 31.0039H22.7772C22.5011 31.0039 22.2772 30.78 22.2772 30.5039V29.8086ZM17.3751 34.3187C17.8201 33.5395 18.6486 33.0586 19.5459 33.0586H20.7226H30.454C31.3513 33.0586 32.1797 33.5394 32.6248 34.3185L34.0529 36.8184C34.2433 37.1517 34.0026 37.5664 33.6187 37.5664H16.3815C15.9976 37.5664 15.7569 37.1517 15.9473 36.8184L17.3751 34.3187Z" fill="black" stroke="black"/>
</svg>
