<svg width="20" height="21" viewBox="0 0 20 21" fill="none" xmlns="http://www.w3.org/2000/svg">
<path d="M16.875 3.9375H14.0625V2.95312C14.0604 2.34462 13.8293 1.76166 13.4195 1.33138C13.0097 0.901097 12.4545 0.658412 11.875 0.65625H8.125C7.54547 0.658412 6.99027 0.901097 6.58048 1.33138C6.17069 1.76166 5.93956 2.34462 5.9375 2.95312V3.9375H3.125C2.87636 3.9375 2.6379 4.04121 2.46209 4.22582C2.28627 4.41042 2.1875 4.6608 2.1875 4.92188C2.1875 5.18295 2.28627 5.43333 2.46209 5.61793C2.6379 5.80254 2.87636 5.90625 3.125 5.90625H3.4375V17.0625C3.43955 17.497 3.60483 17.913 3.89741 18.2202C4.19 18.5274 4.58623 18.701 5 18.7031H15C15.4138 18.701 15.81 18.5274 16.1026 18.2202C16.3952 17.913 16.5604 17.497 16.5625 17.0625V5.90625H16.875C17.1236 5.90625 17.3621 5.80254 17.5379 5.61793C17.7137 5.43333 17.8125 5.18295 17.8125 4.92188C17.8125 4.6608 17.7137 4.41042 17.5379 4.22582C17.3621 4.04121 17.1236 3.9375 16.875 3.9375ZM7.8125 2.95312C7.8125 2.8661 7.84542 2.78264 7.90403 2.72111C7.96263 2.65957 8.04212 2.625 8.125 2.625H11.875C11.9579 2.625 12.0374 2.65957 12.096 2.72111C12.1546 2.78264 12.1875 2.8661 12.1875 2.95312V3.9375H7.8125V2.95312ZM14.6875 16.7344H5.3125V5.90625H14.6875V16.7344ZM9.0625 8.53125V13.7812C9.0625 14.0423 8.96373 14.2927 8.78791 14.4773C8.6121 14.6619 8.37364 14.7656 8.125 14.7656C7.87636 14.7656 7.6379 14.6619 7.46209 14.4773C7.28627 14.2927 7.1875 14.0423 7.1875 13.7812V8.53125C7.1875 8.27018 7.28627 8.0198 7.46209 7.83519C7.6379 7.65059 7.87636 7.54688 8.125 7.54688C8.37364 7.54688 8.6121 7.65059 8.78791 7.83519C8.96373 8.0198 9.0625 8.27018 9.0625 8.53125ZM12.8125 8.53125V13.7812C12.8125 14.0423 12.7137 14.2927 12.5379 14.4773C12.3621 14.6619 12.1236 14.7656 11.875 14.7656C11.6264 14.7656 11.3879 14.6619 11.2121 14.4773C11.0363 14.2927 10.9375 14.0423 10.9375 13.7812V8.53125C10.9375 8.27018 11.0363 8.0198 11.2121 7.83519C11.3879 7.65059 11.6264 7.54688 11.875 7.54688C12.1236 7.54688 12.3621 7.65059 12.5379 7.83519C12.7137 8.0198 12.8125 8.27018 12.8125 8.53125Z" fill="#8F8C8C"/>
</svg>
