<svg width="50" height="50" viewBox="0 0 50 50" fill="none" xmlns="http://www.w3.org/2000/svg">
<path d="M12.9033 28.3364L14.8223 26.6957C14.7314 26.1391 14.6846 25.5707 14.6846 25.0024C14.6846 24.434 14.7314 23.8657 14.8223 23.309L12.9033 21.6684C12.7586 21.5445 12.655 21.3795 12.6063 21.1952C12.5576 21.011 12.5662 20.8164 12.6309 20.6371L12.6572 20.561C13.1855 19.0845 13.9766 17.7158 14.9922 16.5209L15.0449 16.4594C15.1681 16.3145 15.3323 16.2104 15.5159 16.1607C15.6995 16.111 15.8938 16.1181 16.0732 16.1811L18.4551 17.0278C19.334 16.3071 20.3154 15.7387 21.376 15.3403L21.8359 12.85C21.8706 12.6627 21.9615 12.4903 22.0965 12.3558C22.2315 12.2213 22.4043 12.1311 22.5918 12.0971L22.6709 12.0825C24.1973 11.8071 25.8027 11.8071 27.3291 12.0825L27.4082 12.0971C27.5957 12.1311 27.7684 12.2213 27.9035 12.3558C28.0385 12.4903 28.1294 12.6627 28.1641 12.85L28.6269 15.352C29.679 15.7505 30.6588 16.3186 31.5273 17.0336L33.9268 16.1811C34.1061 16.1176 34.3006 16.1103 34.4843 16.16C34.668 16.2097 34.8322 16.3141 34.9551 16.4594L35.0078 16.5209C36.0222 17.7166 36.8132 19.0851 37.3428 20.561L37.3691 20.6371C37.501 21.0034 37.3926 21.4135 37.0967 21.6684L35.1543 23.3266C35.2451 23.8774 35.2891 24.4399 35.2891 24.9994C35.2891 25.5619 35.2451 26.1245 35.1543 26.6723L37.0967 28.3305C37.2414 28.4544 37.345 28.6194 37.3937 28.8037C37.4423 28.9879 37.4338 29.1825 37.3691 29.3618L37.3428 29.4379C36.8125 30.9145 36.0273 32.2768 35.0078 33.478L34.9551 33.5395C34.8319 33.6844 34.6677 33.7885 34.4841 33.8382C34.3005 33.8879 34.1062 33.8808 33.9268 33.8178L31.5273 32.9653C30.6543 33.683 29.6787 34.2514 28.6269 34.6469L28.1641 37.1489C28.1294 37.3362 28.0385 37.5086 27.9035 37.6431C27.7684 37.7776 27.5957 37.8678 27.4082 37.9018L27.3291 37.9164C25.7887 38.1933 24.2113 38.1933 22.6709 37.9164L22.5918 37.9018C22.4043 37.8678 22.2315 37.7776 22.0965 37.6431C21.9615 37.5086 21.8706 37.3362 21.8359 37.1489L21.376 34.6586C20.3159 34.2612 19.3289 33.691 18.4551 32.9711L16.0732 33.8178C15.8938 33.8813 15.6994 33.8886 15.5157 33.8389C15.332 33.7892 15.1678 33.6848 15.0449 33.5395L14.9922 33.478C13.9727 32.2739 13.1875 30.9145 12.6572 29.4379L12.6309 29.3618C12.499 29.0014 12.6074 28.5912 12.9033 28.3364ZM16.9023 23.6547C16.8291 24.0971 16.791 24.5512 16.791 25.0053C16.791 25.4594 16.8291 25.9135 16.9023 26.3559L17.0957 27.5307L14.9072 29.4028C15.239 30.1671 15.6578 30.8906 16.1553 31.559L18.874 30.5952L19.7939 31.351C20.4941 31.9252 21.2734 32.3764 22.1172 32.6928L23.2334 33.1118L23.7578 35.9536C24.5852 36.0473 25.4206 36.0473 26.248 35.9536L26.7725 33.1059L27.8799 32.6811C28.7148 32.3647 29.4912 31.9135 30.1855 31.3422L31.1055 30.5834L33.8418 31.5561C34.3398 30.8852 34.7559 30.1616 35.0898 29.3998L32.8779 27.5102L33.0684 26.3383C33.1387 25.9018 33.1768 25.4506 33.1768 25.0053C33.1768 24.5571 33.1416 24.1088 33.0684 23.6723L32.8779 22.5004L35.0898 20.6108C34.7588 19.8461 34.3398 19.1254 33.8418 18.4545L31.1055 19.4272L30.1855 18.6684C29.4912 18.0971 28.7148 17.6459 27.8799 17.3295L26.7695 16.9106L26.2451 14.0629C25.4219 13.9692 24.581 13.9692 23.7549 14.0629L23.2305 16.9047L22.1143 17.3237C21.2734 17.6401 20.4912 18.0912 19.791 18.6655L18.8711 19.4213L16.1523 18.4575C15.6543 19.1284 15.2383 19.852 14.9043 20.6137L17.0928 22.4858L16.9023 23.6547ZM24.9971 19.5561C27.8447 19.5561 30.1533 21.8647 30.1533 24.7123C30.1533 27.56 27.8447 29.8686 24.9971 29.8686C22.1494 29.8686 19.8408 27.56 19.8408 24.7123C19.8408 21.8647 22.1494 19.5561 24.9971 19.5561ZM22.6768 27.0327C22.9811 27.3379 23.3428 27.5799 23.741 27.7448C24.1392 27.9097 24.5661 27.9943 24.9971 27.9936C25.873 27.9936 26.6963 27.6508 27.3174 27.0327C27.6226 26.7283 27.8646 26.3667 28.0295 25.9684C28.1944 25.5702 28.279 25.1433 28.2783 24.7123C28.2783 23.8364 27.9355 23.0131 27.3174 22.392C26.6963 21.7709 25.873 21.4311 24.9971 21.4311C24.1211 21.4311 23.2978 21.7709 22.6768 22.392C22.3715 22.6964 22.1295 23.058 21.9646 23.4562C21.7997 23.8544 21.7151 24.2813 21.7158 24.7123C21.7158 25.5883 22.0586 26.4116 22.6768 27.0327Z" fill="black"/>
</svg>
