<svg width="24" height="24" viewBox="0 0 24 24" fill="none" xmlns="http://www.w3.org/2000/svg">
<path d="M5 22C4.45 22 3.97933 21.8043 3.588 21.413C3.196 21.021 3 20.55 3 20V10C3 9.45 3.196 8.979 3.588 8.587C3.97933 8.19567 4.45 8 5 8H6V6C6 4.61667 6.48767 3.43733 7.463 2.462C8.43767 1.48733 9.61667 1 11 1C12.3833 1 13.5627 1.48733 14.538 2.462C15.5127 3.43733 16 4.61667 16 6V8H17C17.55 8 18.021 8.19567 18.413 8.587C18.8043 8.979 19 9.45 19 10V20C19 20.55 18.8043 21.021 18.413 21.413C18.021 21.8043 17.55 22 17 22H5ZM5 20H17V10H5V20ZM8 8H14V6C14 5.16667 13.7083 4.45833 13.125 3.875C12.5417 3.29167 11.8333 3 11 3C10.1667 3 9.45833 3.29167 8.875 3.875C8.29167 4.45833 8 5.16667 8 6V8Z" fill="#C1DE92"/>
<path d="M14 13.5625C14 14.3594 13.5083 15.1771 12.5389 15.9948C12.0987 16.3658 11.6194 16.6939 11.1083 16.9739C11.0751 16.991 11.0379 17 11 17C10.9621 17 10.9249 16.991 10.8917 16.9739C10.7722 16.9114 8 15.4349 8 13.5625C8 13.2346 8.11006 12.9149 8.3146 12.6489C8.51913 12.3828 8.80777 12.1839 9.13962 12.0802C9.47147 11.9765 9.82972 11.9733 10.1636 12.0711C10.4975 12.1689 10.7901 12.3626 11 12.625C11.2099 12.3626 11.5025 12.1689 11.8364 12.0711C12.1703 11.9733 12.5285 11.9765 12.8604 12.0802C13.1922 12.1839 13.4809 12.3828 13.6854 12.6489C13.8899 12.9149 14 13.2346 14 13.5625Z" fill="#C1DE92"/>
</svg>
