<svg width="30" height="30" viewBox="0 0 30 30" fill="none" xmlns="http://www.w3.org/2000/svg">
<path d="M5.45441 20.434H23.6362V4.41363H7.27259C6.79038 4.41363 6.32792 4.5913 5.98695 4.90755C5.64597 5.22381 5.45441 5.65274 5.45441 6.09999V20.434ZM7.27259 2.72728H24.5453C24.7864 2.72728 25.0177 2.81611 25.1881 2.97424C25.3586 3.13237 25.4544 3.34683 25.4544 3.57046V21.2772C25.4544 21.5008 25.3586 21.7153 25.1881 21.8734C25.0177 22.0315 24.7864 22.1203 24.5453 22.1203H4.54532L3.63623 23.6364V6.09999C3.63623 5.20549 4.01935 4.34763 4.7013 3.71512C5.38325 3.08262 6.30817 2.72728 7.27259 2.72728Z" fill="#121212"/>
<path d="M6.81805 22.1429C6.45639 22.1429 6.10954 22.2763 5.85381 22.5137C5.59808 22.7512 5.45441 23.0733 5.45441 23.4091C5.45441 23.7449 5.59808 24.067 5.85381 24.3045C6.10954 24.5419 6.45639 24.6753 6.81805 24.6753H23.6362V22.1429H6.81805ZM6.81805 20.4546H25.4544V24.6753C25.4544 25.1231 25.2629 25.5525 24.9219 25.8692C24.5809 26.1858 24.1184 26.3636 23.6362 26.3636H6.81805C5.97418 26.3636 5.16487 26.0524 4.56816 25.4983C3.97146 24.9442 3.63623 24.1927 3.63623 23.4091C3.63623 22.6255 3.97146 21.874 4.56816 21.3199C5.16487 20.7658 5.97418 20.4546 6.81805 20.4546ZM14.5453 4.41559V11.0338L17.2726 9.0078L19.9999 11.0338V4.41559H14.5453ZM12.7271 2.72728H21.818V12.7896C21.8178 12.9485 21.7693 13.104 21.6781 13.2384C21.5869 13.3728 21.4567 13.4806 21.3025 13.5494C21.1483 13.6181 20.9764 13.6451 20.8064 13.6272C20.6364 13.6093 20.4753 13.5472 20.3417 13.4481L17.2726 11.1688L14.2035 13.4481C14.0698 13.5472 13.9087 13.6093 13.7388 13.6272C13.5688 13.6451 13.3968 13.6181 13.2426 13.5494C13.0884 13.4806 12.9583 13.3728 12.8671 13.2384C12.7759 13.104 12.7274 12.9485 12.7271 12.7896V2.72728Z" fill="#121212"/>
<path d="M14.9683 5.08355C14.9683 6.76775 14.9683 8.45194 14.9683 10.1361C14.9683 10.387 14.8999 10.7497 14.9702 10.9959C14.9847 11.0464 16.2342 10.7301 16.3167 10.7081C16.6407 10.6217 17.0504 10.587 17.3545 10.4429C17.5801 10.336 17.5212 9.90498 17.5212 9.71194C17.5212 8.46615 17.0519 7.30561 16.7296 6.11944C16.6752 5.91923 16.5705 5.66782 16.5705 5.45852C16.5705 5.09351 16.7712 6.16119 16.8432 6.51903C16.9998 7.29775 17.1492 8.07982 17.3356 8.85216C17.4547 9.34605 17.5827 9.86319 17.8639 10.2933C18.1552 10.7388 18.5365 10.6399 19.0172 10.6399C19.1011 10.6399 19.0773 10.6052 19.0286 10.5414C18.8021 10.245 18.5255 9.98343 18.2862 9.69679C17.4486 8.69343 16.9701 7.55557 16.4228 6.38457C16.301 6.12414 16.1999 5.85197 16.097 5.58351C16.0639 5.497 15.9937 5.33936 16.0289 5.24263C16.0611 5.154 16.6796 5.16401 16.7485 5.1593C17.2376 5.12586 17.718 5.16966 18.1991 5.25399C18.4117 5.29124 18.6198 5.32216 18.8354 5.32216C18.9543 5.32216 18.8889 6.33158 18.8904 6.42434C18.9076 7.50915 19.1519 8.50266 19.4339 9.5415C19.5344 9.91174 19.6745 10.2706 19.7748 10.6399C19.7991 10.7295 19.8211 10.8282 19.877 10.905C19.8874 10.9193 19.8924 10.8714 19.8903 10.8539C19.8607 10.6054 19.8321 10.3569 19.8088 10.1077C19.7411 9.38197 19.7163 8.651 19.7085 7.92232C19.7022 7.34142 19.6753 6.74676 19.7444 6.16868C19.7971 5.72855 19.8713 5.14027 20.1308 4.76161C20.1588 4.72076 20.506 4.29601 20.5512 4.34119C20.5828 4.37277 20.5588 4.52423 20.5588 4.56087C20.5588 4.81589 20.5588 5.07092 20.5588 5.32595C20.5588 6.20308 20.456 7.06634 20.4224 7.93936C20.4184 8.04461 20.3901 7.8743 20.3883 7.84467C20.3839 7.76962 20.2963 7.7224 20.2501 7.67045C20.0327 7.42592 19.8445 7.07485 19.6895 6.78795C19.5678 6.56258 19.3943 6.32275 19.3316 6.0721" stroke="#121212" stroke-width="3" stroke-linecap="round"/>
<path d="M20.4224 11.1853C20.4224 11.3354 20.447 11.4506 20.483 11.5943C20.4981 11.655 20.5972 11.9803 20.5246 11.7988" stroke="#121212" stroke-width="3" stroke-linecap="round"/>
</svg>
