<svg width="20" height="20" viewBox="0 0 20 20" fill="none" xmlns="http://www.w3.org/2000/svg">
<path d="M16.0704 15.1798C16.1878 15.2983 16.2536 15.4583 16.2536 15.6251C16.2536 15.7919 16.1878 15.9519 16.0704 16.0704C15.9509 16.1859 15.7913 16.2505 15.6251 16.2505C15.4589 16.2505 15.2992 16.1859 15.1798 16.0704L10.0001 10.8829L4.82041 16.0704C4.70095 16.1859 4.54127 16.2505 4.3751 16.2505C4.20892 16.2505 4.04925 16.1859 3.92979 16.0704C3.81242 15.9519 3.74658 15.7919 3.74658 15.6251C3.74658 15.4583 3.81242 15.2983 3.92979 15.1798L9.11728 10.0001L3.92979 4.82041C3.83012 4.69898 3.77919 4.54481 3.78689 4.3879C3.7946 4.231 3.8604 4.08256 3.97148 3.97148C4.08256 3.8604 4.231 3.7946 4.3879 3.7869C4.54481 3.77919 4.69898 3.83012 4.82041 3.92979L10.0001 9.11729L15.1798 3.92979C15.3012 3.83012 15.4554 3.77919 15.6123 3.7869C15.7692 3.7946 15.9176 3.8604 16.0287 3.97148C16.1398 4.08256 16.2056 4.231 16.2133 4.3879C16.221 4.54481 16.1701 4.69898 16.0704 4.82041L10.8829 10.0001L16.0704 15.1798Z" fill="#D9D9D9"/>
</svg>
