<svg width="50" height="50" viewBox="0 0 50 50" fill="none" xmlns="http://www.w3.org/2000/svg">
<path d="M36.25 33.525V25.1087C36.25 24.4305 36.112 23.7594 35.8445 23.1363C35.577 22.5131 35.1854 21.9508 34.6937 21.4837L26.7225 13.9125C26.2579 13.4711 25.6415 13.225 25.0006 13.225C24.3598 13.225 23.7434 13.4711 23.2788 13.9125L15.3062 21.4837C14.8146 21.9508 14.423 22.5131 14.1555 23.1363C13.888 23.7594 13.75 24.4305 13.75 25.1087V33.525C13.75 34.188 14.0134 34.8239 14.4822 35.2927C14.9511 35.7616 15.587 36.025 16.25 36.025H33.75C34.413 36.025 35.0489 35.7616 35.5178 35.2927C35.9866 34.8239 36.25 34.188 36.25 33.525Z" stroke="black" stroke-width="2" stroke-linecap="round" stroke-linejoin="round"/>
<rect x="21" y="26.775" width="8" height="9" rx="1" fill="white" stroke="black" stroke-width="2"/>
</svg>
