<svg width="20" height="21" viewBox="0 0 20 21" fill="none" xmlns="http://www.w3.org/2000/svg">
<path d="M13.3333 14.875V12.25H7.5V8.75H13.3333V6.125L17.5 10.5L13.3333 14.875ZM11.6667 1.75C12.1087 1.75 12.5326 1.93437 12.8452 2.26256C13.1577 2.59075 13.3333 3.03587 13.3333 3.5V5.25H11.6667V3.5H4.16667V17.5H11.6667V15.75H13.3333V17.5C13.3333 17.9641 13.1577 18.4092 12.8452 18.7374C12.5326 19.0656 12.1087 19.25 11.6667 19.25H4.16667C3.72464 19.25 3.30072 19.0656 2.98816 18.7374C2.67559 18.4092 2.5 17.9641 2.5 17.5V3.5C2.5 3.03587 2.67559 2.59075 2.98816 2.26256C3.30072 1.93437 3.72464 1.75 4.16667 1.75H11.6667Z" fill="#8F8C8C"/>
</svg>
